<svg width="25" height="27" viewBox="0 0 25 27" fill="none" xmlns="http://www.w3.org/2000/svg">
    <g clip-path="url(#clip0_5673_10737)">
        <path d="M22.9162 21.4801C22.7303 22.861 21.8011 24.0559 20.5001 24.5869C19.8627 24.8522 19.1725 24.932 18.482 24.8522C17.8184 24.7726 17.1545 24.5601 16.4643 24.1623C15.5083 23.6307 14.5524 22.8079 13.4373 21.5864C15.1898 19.4358 16.2516 17.4708 16.65 15.7189C16.8359 14.8955 16.8624 14.1521 16.7829 13.4616C16.6768 12.798 16.4378 12.1871 16.0659 11.6561C15.2428 10.4614 13.8622 9.77095 12.3222 9.77095C10.7822 9.77095 9.40154 10.4879 8.57847 11.6561C8.20659 12.1871 7.96787 12.798 7.86151 13.4616C7.75541 14.1521 7.78193 14.9221 7.99439 15.7189C8.39253 17.4708 9.48111 19.4623 11.2071 21.6127C10.1185 22.8344 9.13602 23.6575 8.18007 24.1885C7.48989 24.5869 6.82598 24.7994 6.16232 24.8787C5.44536 24.9585 4.75492 24.8522 4.14432 24.6134C2.84327 24.0824 1.91411 22.8872 1.72817 21.5066C1.6486 20.8429 1.70164 20.1793 1.96716 19.4358C2.04673 19.17 2.17962 18.905 2.31225 18.5862C2.49819 18.1615 2.71065 17.7098 2.92285 17.2584L2.94964 17.2056C4.78144 13.2492 6.7464 9.2134 8.79093 5.28401L8.87051 5.12433C9.08297 4.72646 9.29517 4.3018 9.5079 3.90339C9.7201 3.47847 9.95909 3.08006 10.2511 2.73471C10.8087 2.09732 11.5522 1.75223 12.3752 1.75223C13.1983 1.75223 13.9418 2.09732 14.4993 2.73471C14.7914 3.08006 15.0304 3.47847 15.2428 3.90339C15.4553 4.3018 15.6675 4.72646 15.88 5.12433L15.9598 5.28401C17.9775 9.23992 19.9425 13.2757 21.7746 17.2321V17.2584C21.987 17.6833 22.1727 18.1615 22.3852 18.5862C22.5181 18.905 22.6507 19.17 22.7303 19.4358C22.9427 20.126 23.0223 20.7902 22.9162 21.4801ZM12.3222 20.2321C10.8885 18.4268 9.95909 16.7274 9.64052 15.294C9.5079 14.6831 9.48111 14.1521 9.56095 13.6741C9.614 13.2492 9.77341 12.8773 9.98561 12.5584C10.4901 11.8423 11.3397 11.39 12.3222 11.39C13.3047 11.39 14.1808 11.8152 14.6588 12.5584C14.871 12.8773 15.0304 13.2492 15.0834 13.6741C15.163 14.1521 15.1365 14.7096 15.0038 15.294C14.6853 16.7011 13.7559 18.4003 12.3222 20.2321ZM24.2968 18.8515C24.1642 18.5329 24.0313 18.1878 23.8987 17.8958C23.6862 17.4181 23.4738 16.9663 23.2878 16.5414L23.2613 16.5152C21.4295 12.5322 19.4645 8.49643 17.3935 4.51426L17.3139 4.35458C17.1014 3.95618 16.889 3.53125 16.6768 3.10659C16.411 2.62835 16.1455 2.12437 15.7208 1.64613C14.871 0.584077 13.6498 0 12.3487 0C11.0211 0 9.82646 0.584077 8.95008 1.59335C8.55195 2.07106 8.25991 2.57556 7.99439 3.0538C7.78193 3.47847 7.56947 3.90339 7.357 4.3018L7.27743 4.46068C5.23316 8.44338 3.24168 12.4794 1.40961 16.4621L1.38308 16.5152C1.19714 16.9398 0.984679 17.391 0.772215 17.8692C0.639591 18.1616 0.506701 18.4801 0.374077 18.8252C0.0287239 19.8074 -0.0773754 20.7368 0.0552487 21.6925C0.347552 23.684 1.67512 25.3569 3.50719 26.1002C4.19737 26.3925 4.91433 26.5251 5.65782 26.5251C5.87029 26.5251 6.1358 26.4986 6.34826 26.4718C7.22438 26.3654 8.12702 26.0739 9.00313 25.5691C10.092 24.9585 11.1275 24.0824 12.2957 22.8079C13.4638 24.0824 14.5259 24.9585 15.5879 25.5691C16.4643 26.0739 17.3669 26.3654 18.2431 26.4718C18.4555 26.4986 18.721 26.5251 18.9335 26.5251C19.677 26.5251 20.4202 26.3925 21.0841 26.1002C22.9427 25.3569 24.2438 23.6575 24.5358 21.6925C24.7483 20.7631 24.6419 19.8342 24.2968 18.8515Z" fill="#FF385C"/>
    </g>
    <defs>
        <clipPath id="clip0_5673_10737">
            <rect width="24.6452" height="26.5706" fill="white"/>
        </clipPath>
    </defs>
</svg>
