<svg width="30" height="30" viewBox="0 0 30 30" fill="none" xmlns="http://www.w3.org/2000/svg">
    <rect width="29.5" height="29.5" rx="14.75" fill="#873EFF"/>
    <g clip-path="url(#clip0_5673_10721)">
        <path fill-rule="evenodd" clip-rule="evenodd" d="M12.7551 11.3857C12.1902 11.3857 11.8224 11.5696 11.494 12.187L9.99655 15.0113V12.5023C9.99655 11.7535 9.64188 11.3857 8.98508 11.3857C8.32829 11.3857 8.05243 11.6091 7.72403 12.2396L6.30536 15.0113V12.5286C6.30536 11.7273 5.97696 11.3857 5.17567 11.3857H3.54681C2.92942 11.3857 2.58789 11.6747 2.58789 12.2002C2.58789 12.7256 2.91629 13.0409 3.52054 13.0409H4.19047V16.2066C4.19047 17.0999 4.79472 17.6253 5.6617 17.6253C6.52867 17.6253 6.92274 17.2838 7.35623 16.4825L8.30202 14.7091V16.2066C8.30202 17.0867 8.88 17.6253 9.7601 17.6253C10.6402 17.6253 10.9686 17.3232 11.4678 16.4825L13.6483 12.8044C14.1212 12.0031 13.7928 11.3857 12.742 11.3857C12.742 11.3857 12.742 11.3857 12.7551 11.3857Z" fill="white"/>
        <path fill-rule="evenodd" clip-rule="evenodd" d="M16.8534 11.3857C15.0669 11.3857 13.7139 12.7125 13.7139 14.5121C13.7139 16.3117 15.08 17.6253 16.8534 17.6253C18.6267 17.6253 19.9797 16.2986 19.9928 14.5121C19.9928 12.7125 18.6267 11.3857 16.8534 11.3857ZM16.8534 15.7075C16.1834 15.7075 15.7237 15.2083 15.7237 14.5121C15.7237 13.8159 16.1834 13.3036 16.8534 13.3036C17.5233 13.3036 17.983 13.8159 17.983 14.5121C17.983 15.2083 17.5364 15.7075 16.8534 15.7075Z" fill="white"/>
        <path fill-rule="evenodd" clip-rule="evenodd" d="M23.5658 11.3857C21.7924 11.3857 20.4263 12.7125 20.4263 14.5121C20.4263 16.3117 21.7924 17.6253 23.5658 17.6253C25.3391 17.6253 26.7052 16.2986 26.7052 14.5121C26.7052 12.7256 25.3391 11.3857 23.5658 11.3857ZM23.5658 15.7075C22.8827 15.7075 22.4492 15.2083 22.4492 14.5121C22.4492 13.8159 22.8958 13.3036 23.5658 13.3036C24.2357 13.3036 24.6954 13.8159 24.6954 14.5121C24.6954 15.2083 24.2488 15.7075 23.5658 15.7075Z" fill="white"/>
    </g>
    <defs>
        <clipPath id="clip0_5673_10721">
            <rect width="24.1175" height="6.23956" fill="white" transform="translate(2.58789 11.3857)"/>
        </clipPath>
    </defs>
</svg>
